HIERARCHY
ROOT hip
{
  OFFSET 0 0 0
  CHANNELS 6 Xposition Yposition Zposition Zrotation Yrotation Xrotation
  JOINT abdomen
  {
    OFFSET 0 20.6881 -0.73152
    CHANNELS 3 Zrotation Xrotation Yrotation
    JOINT chest
    {
      OFFSET 0 11.7043 -0.48768
      CHANNELS 3 Zrotation Xrotation Yrotation
      JOINT neck
      {
        OFFSET 0 22.1894 -2.19456
        CHANNELS 3 Zrotation Xrotation Yrotation
        JOINT head
        {
          OFFSET -0.24384 7.07133 1.2192
          CHANNELS 3 Zrotation Xrotation Yrotation
          JOINT leftEye
          {
            OFFSET 4.14528 8.04674 8.04672
            CHANNELS 3 Zrotation Xrotation Yrotation
            End Site
            {
              OFFSET 1 0 0
            }
          }
          JOINT rightEye
          {
            OFFSET -3.6576 8.04674 8.04672
            CHANNELS 3 Zrotation Xrotation Yrotation
            End Site
            {
              OFFSET 1 0 0
            }
          }
        }
      }
      JOINT rCollar
      {
        OFFSET -2.68224 19.2634 -4.8768
        CHANNELS 3 Zrotation Xrotation Yrotation
        JOINT rShldr
        {
          OFFSET -8.77824 -1.95073 1.46304
          CHANNELS 3 Zrotation Xrotation Yrotation
          JOINT rForeArm
          {
            OFFSET -28.1742 -1.7115 0.48768
            CHANNELS 3 Zrotation Xrotation Yrotation
            JOINT rHand
            {
              OFFSET -22.5879 0.773209 7.07136
              CHANNELS 3 Zrotation Xrotation Yrotation
              JOINT rThumb1
              {
                OFFSET -1.2192 -0.487915 3.41376
                CHANNELS 3 Zrotation Xrotation Yrotation
                JOINT rThumb2
                {
                  OFFSET -3.37035 -0.52449 3.41376
                  CHANNELS 3 Zrotation Xrotation Yrotation
                  End Site
                  {
                    OFFSET -1.78271 -1.18214 1.43049
                  }
                }
              }
              JOINT rIndex1
              {
                OFFSET -7.75947 0.938293 5.60832
                CHANNELS 3 Zrotation Xrotation Yrotation
                JOINT rIndex2
                {
                  OFFSET -2.54057 -0.884171 1.56538
                  CHANNELS 3 Zrotation Xrotation Yrotation
                  End Site
                  {
                    OFFSET -1.62519 -0.234802 1.16502
                  }
                }
              }
              JOINT rMid1
              {
                OFFSET -8.24714 1.18213 3.41376
                CHANNELS 3 Zrotation Xrotation Yrotation
                JOINT rMid2
                {
                  OFFSET -3.10165 -0.590103 1.0647
                  CHANNELS 3 Zrotation Xrotation Yrotation
                  End Site
                  {
                    OFFSET -2.48547 -0.328903 0.83742
                  }
                }
              }
              JOINT rRing1
              {
                OFFSET -8.82822 0.546677 1.51678
                CHANNELS 3 Zrotation Xrotation Yrotation
                JOINT rRing2
                {
                  OFFSET -2.60934 -0.819778 -0.0198488
                  CHANNELS 3 Zrotation Xrotation Yrotation
                  End Site
                  {
                    OFFSET -2.33842 -0.294052 0.168128
                  }
                }
              }
              JOINT rPinky1
              {
                OFFSET -8.27202 -0.0477905 -0.4584
                CHANNELS 3 Zrotation Xrotation Yrotation
                JOINT rPinky2
                {
                  OFFSET -1.82734 -0.647385 -0.700984
                  CHANNELS 3 Zrotation Xrotation Yrotation
                  End Site
                  {
                    OFFSET -1.69225 -0.51767 -0.607171
                  }
                }
              }
            }
          }
        }
      }
      JOINT lCollar
      {
        OFFSET 2.68224 19.2634 -4.8768
        CHANNELS 3 Zrotation Xrotation Yrotation
        JOINT lShldr
        {
          OFFSET 8.77824 -1.95073 1.46304
          CHANNELS 3 Zrotation Xrotation Yrotation
          JOINT lForeArm
          {
            OFFSET 28.1742 -1.7115 0.48768
            CHANNELS 3 Zrotation Xrotation Yrotation
            JOINT lHand
            {
              OFFSET 22.5879 0.773209 7.07136
              CHANNELS 3 Zrotation Xrotation Yrotation
              JOINT lThumb1
              {
                OFFSET 1.2192 -0.487915 3.41376
                CHANNELS 3 Zrotation Xrotation Yrotation
                JOINT lThumb2
                {
                  OFFSET 3.37035 -0.52449 3.41376
                  CHANNELS 3 Zrotation Xrotation Yrotation
                  End Site
                  {
                    OFFSET 1.78271 -1.18214 1.43049
                  }
                }
              }
              JOINT lIndex1
              {
                OFFSET 7.75947 0.938293 5.60832
                CHANNELS 3 Zrotation Xrotation Yrotation
                JOINT lIndex2
                {
                  OFFSET 2.54057 -0.884171 1.56538
                  CHANNELS 3 Zrotation Xrotation Yrotation
                  End Site
                  {
                    OFFSET 1.62519 -0.234802 1.16502
                  }
                }
              }
              JOINT lMid1
              {
                OFFSET 8.24714 1.18213 3.41376
                CHANNELS 3 Zrotation Xrotation Yrotation
                JOINT lMid2
                {
                  OFFSET 3.10165 -0.590103 1.0647
                  CHANNELS 3 Zrotation Xrotation Yrotation
                  End Site
                  {
                    OFFSET 2.48547 -0.328903 0.83742
                  }
                }
              }
              JOINT lRing1
              {
                OFFSET 8.82822 0.546677 1.51678
                CHANNELS 3 Zrotation Xrotation Yrotation
                JOINT lRing2
                {
                  OFFSET 2.60934 -0.819778 -0.0198488
                  CHANNELS 3 Zrotation Xrotation Yrotation
                  End Site
                  {
                    OFFSET 2.33842 -0.294052 0.168128
                  }
                }
              }
              JOINT lPinky1
              {
                OFFSET 8.27202 -0.0477905 -0.4584
                CHANNELS 3 Zrotation Xrotation Yrotation
                JOINT lPinky2
                {
                  OFFSET 1.82734 -0.647385 -0.700984
                  CHANNELS 3 Zrotation Xrotation Yrotation
                  End Site
                  {
                    OFFSET 1.69225 -0.51767 -0.607171
                  }
                }
              }
            }
          }
        }
      }
    }
  }
  JOINT rButtock
  {
    OFFSET -8.77824 4.35084 1.2192
    CHANNELS 3 Zrotation Xrotation Yrotation
    JOINT rThigh
    {
      OFFSET 0 -1.70687 -2.19456
      CHANNELS 3 Zrotation Xrotation Yrotation
      JOINT rShin
      {
        OFFSET 0 -36.8199 0.73152
        CHANNELS 3 Zrotation Xrotation Yrotation
        JOINT rFoot
        {
          OFFSET 0.73152 -45.1104 -5.12064
          CHANNELS 3 Zrotation Xrotation Yrotation
          End Site
          {
            OFFSET -1.1221 -3.69964 12.103
          }
        }
      }
    }
  }
  JOINT lButtock
  {
    OFFSET 8.77824 4.35084 1.2192
    CHANNELS 3 Zrotation Xrotation Yrotation
    JOINT lThigh
    {
      OFFSET 0 -1.70687 -2.19456
      CHANNELS 3 Zrotation Xrotation Yrotation
      JOINT lShin
      {
        OFFSET 0 -36.8199 0.73152
        CHANNELS 3 Zrotation Xrotation Yrotation
        JOINT lFoot
        {
          OFFSET -0.73152 -45.1104 -5.12064
          CHANNELS 3 Zrotation Xrotation Yrotation
          End Site
          {
            OFFSET 1.1221 -3.69964 12.103
          }
        }
      }
    }
  }
}
MOTION
Frames:	5
Frame Time:	0.03333
0.0 0.0 0.0 0.0 0.0 0.0 0.0 0.0 0.0 0.0 0.0 0.0 0.0 0.0 0.0 0.0 0.0 0.0 0.0 0.0 0.0 0.0 0.0 0.0 0.0 0.0 0.0 0.0 0.0 0.0 0.0 0.0 0.0 0.0 0.0 0.0 0.0 0.0 0.0 0.0 0.0 0.0 0.0 0.0 0.0 0.0 0.0 0.0 0.0 0.0 0.0 0.0 0.0 0.0 0.0 0.0 0.0 0.0 0.0 0.0 0.0 0.0 0.0 0.0 0.0 0.0 0.0 0.0 0.0 0.0 0.0 0.0 0.0 0.0 0.0 0.0 0.0 0.0 0.0 0.0 0.0 0.0 0.0 0.0 0.0 0.0 0.0 0.0 0.0 0.0 0.0 0.0 0.0 0.0 0.0 0.0 0.0 0.0 0.0 0.0 0.0 0.0 0.0 0.0 0.0 0.0 0.0 0.0 0.0 0.0 0.0 0.0 0.0 0.0 0.0 0.0 0.0 0.0 0.0 0.0 0.0 0.0 0.0 0.0 0.0 0.0 0.0 0.0 0.0 0.0 0.0 0.0
-0.1795 61.935399999999994 0.11750000000000001 -8.582281 -28.984195 3.808659 0.695533 6.397567 166.169434 -5.342523 7.087259 -148.513904 -10.690105 24.261213 -82.467778 31.172411 14.727379 109.959066 0.001032 -0.0 -0.000988 0.001032 -0.0 -0.000988 -155.4174 -2.951444 161.718478 133.417342 -33.339857 165.041578 -89.423337 -39.567122 72.078757 -164.254279 -34.767788 162.709145 6.464594 -6.452287 -0.635001 -101.405877 16.549864 91.605707 -152.104635 -18.556856 121.367498 -0.723669 22.173777 -4.489763 173.120534 -66.297513 137.610944 -54.727544 61.756397 47.88945 -145.099738 -1.521818 -178.64941 9.576517 71.189487 1.860257 -123.037046 -31.10372 -120.854765 11.919244 26.115209 4.425208 -3.206453 -26.010289 5.106455 -71.894921 8.890969 -12.022458 -178.433942 21.195048 -52.497489 -156.395568 -34.349405 -140.178702 94.791604 37.828801 -54.283885 -9.220111 -23.173706 -24.265696 46.207505 39.652902 -36.318883 170.86709 -20.858726 -111.722374 -89.034653 -81.394092 -59.759929 -4.993334 -5.8952 0.503062 145.118493 0.185319 179.186757 145.002115 -50.921604 167.284616 -15.502334 54.138628 -12.142268 129.360038 -28.956419 126.607062 0.0 3.3e-05 -0.000151 -15.299562 -39.004354 156.507745 129.677701 -86.410317 -98.931135 -64.381879 -38.025807 -3.029943 -179.975259 75.748599 -0.020356 -132.68705 -1.57839 0.0 -34.377562 76.81815 -37.042294 -13.087599 -62.570351 80.982457
-0.2082 61.80330000000001 0.163 -8.801029 -28.840599 3.987324 1.406034 11.210783 -0.0 2.884872 -12.998952 17.717766 2.314588 13.477934 22.664643 -1.90365 -18.784119 5.785939 -0.004436 -0.0 0.001636 0.001254 0.0 0.000966 0.118461 -0.714065 -0.157489 -109.943247 -29.44223 -176.37775 -170.93404 -18.038593 -66.144865 -21.039452 -62.543123 -21.039143 -174.087179 -11.753909 89.876267 13.976761 -61.902588 13.897063 167.120501 -67.039662 108.170699 4.047678 20.263914 -3.16287 -160.673145 -6.6682 143.243881 -162.172961 -1.467708 142.586012 0.000818 0.022679 0.006581 -77.41454 78.794389 90.824007 -20.14439 -33.376117 -19.314829 1.9998 -3.032767 -1.174462 8.627552 32.510162 -10.087842 -69.325602 -9.379051 -64.417741 -33.346166 -19.246547 -108.813205 37.056526 72.597665 -24.86908 176.069087 -13.697038 -89.739123 -59.654368 -70.710457 -45.472873 -174.379197 -63.059608 -113.269415 -87.963368 -67.806654 -32.000059 0.056933 0.167975 -0.032287 12.705614 35.439331 -10.1039 74.389733 -72.13557 91.482988 67.295751 83.35474 -85.045535 110.055231 -41.78198 108.126888 -10.902692 22.596948 -4.063755 0.000832 0.001432 -0.001069 -13.415461 -38.681619 -126.661476 -101.915062 -11.29153 -83.240439 35.746553 28.555085 131.216782 0.000347 -0.000384 -0.000446 80.809449 -43.1733 170.216716 81.533634 0.794164 -170.548357 1.259015 -49.429238 93.297083
-0.23500000000000001 61.663900000000005 0.2509 -8.681262 -28.77689 4.041693 2.718486 10.746048 -36.782992 8.749993 -9.187728 54.780887 2.30559 13.561389 22.746753 -1.930587 -19.000687 5.757208 -0.000103 0.0 -0.002368 -0.000103 0.0 -0.002368 -155.613548 -4.236059 161.992198 -50.303509 20.368557 13.883616 -167.2766 -7.290357 -66.428214 -22.869055 -66.827849 -24.667687 83.253628 -50.25819 33.616389 -164.819796 -61.588878 141.219376 -100.051334 38.03764 84.486411 -11.257866 26.019995 1.878557 -141.48122 35.111492 129.493631 -18.089788 42.165699 14.812754 -0.00215 -0.018589 -0.005262 11.531557 -40.161103 -4.889353 -24.991734 -37.658706 -24.06041 -20.961912 -38.966218 -22.584571 143.619742 38.232939 -148.079628 54.687858 -6.282356 -10.285284 -10.289066 -15.112707 125.568456 -157.325772 -32.937317 -140.813842 178.926421 -16.454119 -89.422239 30.676773 -31.931299 0.667646 117.257133 28.443598 -99.153225 -70.287185 -64.85669 -24.461763 160.673762 -6.667797 -143.244989 -7.320884 -12.299821 0.828041 69.296684 72.946436 -87.017117 -5.113891 27.276709 0.734084 -26.972056 80.122439 -10.141147 -1.508851 0.329695 0.836841 0.000792 0.000568 -0.0 -15.832525 -37.488499 52.683567 101.471679 9.151029 83.613616 -174.800353 -10.353983 -146.157843 -0.0 -0.00104 -0.000961 79.839989 -42.037404 83.157202 17.164336 82.153445 -115.562884 12.316987 69.846905 61.972393
-0.3148 61.6157 0.2855 -8.55266 -28.828656 4.032333 1.467802 11.197667 -4.623362 3.707902 -12.791498 22.577414 -8.438706 17.499508 -41.388214 26.936064 -5.05426 72.839756 0.001661 0.0 0.00018 0.001942 0.0 0.001796 -157.797176 -22.115509 165.467163 -42.826009 13.078129 -2.217551 14.454811 -1.075426 -148.030155 -115.770804 44.843771 102.675075 -178.927263 -16.453724 89.422845 -145.825358 9.935349 77.142704 37.214261 -57.91832 -0.644485 138.902341 -63.384667 75.245428 -145.287793 29.524361 132.692477 -86.735521 63.858551 78.669381 -145.120439 0.309947 -179.226031 -6.959285 -61.109661 -27.908742 -8.19245 -17.575289 -7.730804 7.99812 16.082655 4.124547 -0.070842 -0.427839 0.094631 -120.655254 -47.779617 -53.431464 177.408347 -39.04163 -50.788816 -153.350634 -39.003367 -137.693683 -4.530396 -4.514288 0.521665 25.8754 22.489247 -20.428372 38.954637 36.9682 -29.950761 170.751824 -20.961609 -111.253908 160.67141 -6.668161 -143.245123 -167.280742 -63.976557 -132.400975 13.618437 -53.679978 25.681683 -14.062102 0.131995 2.181841 -12.986975 44.344493 -10.762414 41.91239 -49.978436 41.479821 0.002558 0.000194 0.002558 -14.501606 -37.032136 -9.086261 124.96365 71.339323 75.510078 64.736163 -15.619015 136.769559 -179.987368 75.749447 -0.010393 -131.611403 -3.356341 -88.198644 -82.905287 -6.443327 -0.002313 69.314614 73.216182 0.167978
